<svg fill="none" viewBox="0 0 310 310" height="310" width="310" xmlns="http://www.w3.org/2000/svg"><g clip-path="url(#clip0_104_438)"><path fill="url(#paint0_linear_104_438)" d="M310 157.036C311.092 71.4661 242.656 1.14247 157.036 0.000207245C71.4657 -1.09239 1.14206 67.344 -0.000198899 152.964C-1.14246 238.584 67.3436 308.858 152.964 310C238.534 311.093 308.858 242.656 310 157.036Z"></path><path fill="url(#paint1_linear_104_438)" d="M238.385 240.62C285.665 194.582 286.658 118.895 240.62 71.6152C194.582 24.3355 118.895 23.3423 71.6149 69.3804C24.3352 115.419 23.2923 191.106 69.3801 238.385C115.418 285.715 191.105 286.708 238.385 240.62Z"></path><path fill="url(#paint2_radial_104_438)" d="M274.54 156.59C275.434 90.5871 222.592 36.3545 156.589 35.5102C90.5864 34.6163 36.3538 87.4086 35.4598 153.412C34.6155 219.414 87.4079 273.647 153.411 274.541C219.414 275.385 273.646 222.593 274.54 156.59Z"></path><path fill="url(#paint3_linear_104_438)" d="M266.048 156.44C266.842 95.1554 217.775 44.7966 156.44 44.0019C95.1554 43.1577 44.7965 92.2253 43.9523 153.56C43.1576 214.845 92.2253 265.203 153.56 266.048C214.845 266.842 265.203 217.775 266.048 156.44Z"></path><path fill="#FEF7DA" d="M260.634 156.391C261.379 98.0365 214.745 50.1608 156.391 49.3662C98.0359 48.6213 50.1602 95.2554 49.3656 153.61C48.6207 211.965 95.2547 259.84 153.609 260.635C211.964 261.38 259.84 214.746 260.634 156.391Z"></path><path fill="url(#paint4_linear_104_438)" d="M53.736 51.0051L67.3935 64.9605L66.4499 65.8545L65.4069 66.9471L51.4515 53.2399L52.6931 51.9984L53.736 51.0051ZM58.454 46.6347L71.5155 61.1861C70.8203 61.8317 70.125 62.4277 69.4297 63.0733L56.1198 48.7702C56.9145 48.0749 57.6594 47.33 58.454 46.6347ZM63.4701 68.9833C62.8244 69.6786 62.1788 70.3739 61.5332 71.0692L47.0314 57.958C47.7267 57.1634 48.4716 56.3687 49.2166 55.6238L63.4701 68.9833ZM63.3707 42.4133L75.737 57.511C74.992 58.107 74.2967 58.7029 73.5518 59.3486L60.8875 44.4495C61.7318 43.8039 62.5761 43.1086 63.3707 42.4133ZM59.7453 73.155C59.1493 73.8503 58.5037 74.5953 57.9077 75.3402L42.8597 62.9243C43.555 62.0801 44.2006 61.2854 44.8959 60.4908L59.7453 73.155ZM68.4861 38.4402L80.2067 54.0842C79.4617 54.6305 78.7168 55.2265 77.9718 55.7728L65.9532 40.3274C66.7975 39.7315 67.6418 39.0858 68.4861 38.4402ZM56.1695 77.5254C55.5735 78.2704 55.0272 79.0153 54.4809 79.7603L38.8866 67.99C39.5322 67.1457 40.1778 66.2518 40.8731 65.4075L56.1695 77.5254ZM73.8001 34.7154L84.7261 50.9058C83.9314 51.4521 83.1865 51.9487 82.4415 52.495L71.1182 36.553C72.0122 35.9074 72.9061 35.3114 73.8001 34.7154ZM52.7924 81.9952C52.2461 82.7401 51.7494 83.4851 51.2031 84.2797L35.0625 73.2544C35.6584 72.3604 36.3041 71.4665 36.9497 70.5725L52.7924 81.9952ZM79.2134 31.1893L89.3944 47.8763C88.5998 48.3729 87.8052 48.8696 87.0106 49.3662L76.4819 32.9275C77.3759 32.3316 78.3195 31.7853 79.2134 31.1893ZM49.6636 86.6139C49.1669 87.3588 48.6703 88.1534 48.1737 88.9481L31.5364 78.6677C32.1323 77.7241 32.6786 76.8301 33.2746 75.8865L49.6636 86.6139ZM84.8254 27.9612L94.2615 45.0951C93.4669 45.5421 92.6226 45.9891 91.8279 46.4857L81.9946 29.6001C82.9382 29.0041 83.8818 28.4578 84.8254 27.9612ZM46.6838 91.3319C46.1871 92.1265 45.7402 92.9211 45.2932 93.7654L28.2586 84.23C28.8049 83.2864 29.3015 82.3428 29.8478 81.3992L46.6838 91.3319ZM90.5367 24.9317L99.2278 42.4133C98.3835 42.8106 97.5393 43.2576 96.7446 43.7045L87.7059 26.372C88.5998 25.925 89.5434 25.4283 90.5367 24.9317ZM44.0019 96.1989C43.555 97.0432 43.1576 97.8378 42.7107 98.6821L25.2291 89.9413C25.7257 88.9977 26.2224 88.0541 26.719 87.0608L44.0019 96.1989ZM96.397 22.2002L104.294 40.0791C103.449 40.4764 102.555 40.8737 101.711 41.271L93.4172 23.5411C94.4105 23.0942 95.4037 22.6472 96.397 22.2002ZM41.4691 101.215C41.0718 102.059 40.6745 102.904 40.2772 103.748L22.4479 95.752C22.8949 94.7587 23.3419 93.8151 23.7889 92.8218L41.4691 101.215ZM102.406 19.717L109.459 37.9436C108.614 38.2912 107.72 38.6389 106.876 38.9865L99.3768 20.9586C100.37 20.5117 101.413 20.1143 102.406 19.717ZM39.1846 106.281C38.8369 107.125 38.4893 107.969 38.1416 108.813L19.9648 101.662C20.3621 100.669 20.7594 99.6257 21.2064 98.6324L39.1846 106.281ZM108.515 17.4822L114.723 36.0067C113.829 36.3047 112.985 36.6027 112.091 36.9006L105.386 18.5251C106.429 18.1775 107.472 17.8298 108.515 17.4822ZM37.1484 111.495C36.8504 112.34 36.5027 113.234 36.2047 114.078L17.7299 107.771C18.0775 106.728 18.4252 105.734 18.8225 104.691L37.1484 111.495ZM114.673 15.5453L120.087 34.3181C119.193 34.5664 118.299 34.8644 117.405 35.1127L111.544 16.4889C112.587 16.1909 113.63 15.8433 114.673 15.5453ZM35.3605 116.76C35.0625 117.654 34.8142 118.498 34.5658 119.392L15.793 113.879C16.091 112.836 16.4386 111.793 16.7366 110.75L35.3605 116.76ZM120.931 13.9064L125.5 32.8779C124.606 33.1262 123.662 33.3249 122.768 33.5732L117.752 14.701C118.845 14.403 119.888 14.1547 120.931 13.9064ZM33.7712 122.123C33.5229 123.017 33.3243 123.911 33.0759 124.805L14.1045 120.137C14.3528 119.094 14.6508 118.051 14.8991 117.008L33.7712 122.123ZM127.288 12.5158L130.963 31.686C130.069 31.8846 129.125 32.0336 128.231 32.2323L124.109 13.1118C125.152 12.9628 126.195 12.7145 127.288 12.5158ZM32.4303 127.487C32.2317 128.431 32.033 129.325 31.8344 130.268L12.6642 126.394C12.8629 125.351 13.1112 124.309 13.3098 123.266L32.4303 127.487ZM133.645 11.4729L136.525 30.792C135.582 30.941 134.688 31.09 133.744 31.239L130.466 11.9695C131.509 11.7709 132.552 11.6219 133.645 11.4729ZM31.3377 133C31.1887 133.943 31.0397 134.837 30.8907 135.781L11.5716 132.751C11.7206 131.708 11.9193 130.665 12.1179 129.573L31.3377 133ZM140.051 10.6286L142.038 30.0471C141.094 30.1464 140.2 30.2457 139.257 30.345L136.823 10.9762C137.916 10.8769 138.959 10.7776 140.051 10.6286ZM30.4934 138.562C30.3444 139.456 30.2451 140.4 30.1458 141.293L10.7273 139.158C10.8267 138.065 10.9757 137.022 11.1246 135.93L30.4934 138.562ZM146.508 10.132L147.65 29.6497C146.706 29.6994 145.763 29.7491 144.869 29.8484L143.279 10.3803C144.372 10.281 145.415 10.1816 146.508 10.132ZM29.8975 144.075C29.7981 145.018 29.7485 145.962 29.6988 146.905L10.181 145.614C10.2307 144.571 10.33 143.479 10.4294 142.436L29.8975 144.075ZM152.964 9.88365L153.262 29.4014C152.318 29.4014 151.375 29.4511 150.431 29.4511L149.736 9.93331C150.828 9.93331 151.871 9.88365 152.964 9.88365ZM29.5498 149.687C29.5002 150.63 29.4505 151.574 29.4505 152.468L9.93272 152.07C9.93272 150.978 9.98238 149.935 10.032 148.842L29.5498 149.687ZM159.42 9.93331L158.874 29.4511C157.93 29.4014 156.987 29.4014 156.043 29.4014L156.192 9.83398C157.235 9.88365 158.327 9.93331 159.42 9.93331ZM29.4008 155.249C29.4008 156.193 29.4008 157.136 29.4505 158.03L9.93272 158.527C9.88306 157.434 9.88306 156.391 9.88306 155.299L29.4008 155.249ZM165.827 10.281L164.386 29.7491C163.443 29.6994 162.499 29.6001 161.556 29.5504L162.599 10.0326C163.741 10.132 164.784 10.1816 165.827 10.281ZM29.5498 160.861C29.5995 161.805 29.6492 162.748 29.6988 163.642L10.181 164.983C10.1314 163.89 10.032 162.847 9.98238 161.755L29.5498 160.861ZM172.283 10.9266L169.998 30.2954C169.055 30.196 168.111 30.0967 167.217 29.9974L169.154 10.5293C170.147 10.6783 171.24 10.7776 172.283 10.9266ZM29.9471 166.423C30.0465 167.367 30.1458 168.261 30.2451 169.204L10.8267 171.39C10.7273 170.297 10.5783 169.254 10.479 168.161L29.9471 166.423ZM178.69 11.8205L175.511 31.09C174.567 30.941 173.674 30.792 172.73 30.643L175.461 11.2742C176.554 11.4729 177.647 11.6219 178.69 11.8205ZM30.5431 172.035C30.6424 172.979 30.7914 173.873 30.9404 174.816L11.6709 177.796C11.522 176.753 11.3233 175.661 11.224 174.618L30.5431 172.035ZM184.997 13.0125L181.024 32.1329C180.13 31.9343 179.186 31.7356 178.243 31.5866L181.868 12.3668C182.911 12.5655 183.954 12.7641 184.997 13.0125ZM31.437 177.548C31.586 178.491 31.7847 179.385 31.9833 180.329L12.8132 184.203C12.6146 183.16 12.4159 182.117 12.2172 181.024L31.437 177.548ZM191.304 14.4527L186.437 33.3745C185.543 33.1262 184.6 32.9275 183.706 32.6792L188.175 13.6581C189.218 13.9561 190.261 14.2044 191.304 14.4527ZM32.5793 183.011C32.778 183.905 33.0263 184.848 33.2249 185.742L14.2535 190.51C14.0051 189.467 13.7568 188.424 13.5085 187.381L32.5793 183.011ZM197.512 16.2406L191.801 34.9141C190.907 34.6658 190.013 34.3678 189.119 34.1195L194.433 15.297C195.476 15.595 196.469 15.8929 197.512 16.2406ZM33.9202 188.474C34.1685 189.368 34.4169 190.262 34.6652 191.156L15.942 196.768C15.644 195.725 15.346 194.682 15.0481 193.639L33.9202 188.474ZM203.67 18.2271L197.115 36.6523C196.221 36.3543 195.376 36.0564 194.483 35.7584L200.591 17.1842C201.634 17.5318 202.627 17.8795 203.67 18.2271ZM35.5095 193.838C35.8074 194.731 36.1054 195.625 36.4034 196.47L17.9782 202.926C17.6306 201.883 17.2829 200.89 16.9353 199.847L35.5095 193.838ZM209.68 20.5117L202.329 38.6389C201.485 38.2912 200.591 37.9436 199.747 37.5959L206.7 19.3197C207.693 19.717 208.686 20.1143 209.68 20.5117ZM37.3967 199.102C37.7443 199.946 38.0423 200.84 38.3899 201.734L20.2627 209.035C19.8654 208.041 19.4681 206.998 19.0708 206.005L37.3967 199.102ZM215.59 23.0942L207.445 40.8737C206.6 40.4764 205.756 40.1288 204.912 39.7315L212.659 21.8029C213.653 22.2002 214.596 22.6472 215.59 23.0942ZM39.4825 204.317C39.8302 205.161 40.2275 206.005 40.6248 206.899L22.8452 214.945C22.3983 213.951 21.9513 212.958 21.554 211.965L39.4825 204.317ZM221.4 25.925L212.461 43.3072C211.616 42.8603 210.822 42.4629 209.978 42.0656L218.52 24.4847C219.463 24.9317 220.457 25.4283 221.4 25.925ZM41.7671 209.432C42.1644 210.276 42.5617 211.12 43.0087 211.915L25.5767 220.805C25.0801 219.812 24.5835 218.868 24.1365 217.875L41.7671 209.432ZM227.112 29.0041L217.377 45.9394C216.583 45.4924 215.739 44.9958 214.944 44.5985L224.281 27.4149C225.224 27.9612 226.168 28.4578 227.112 29.0041ZM44.2999 214.398C44.7469 215.193 45.1939 216.037 45.6408 216.832L28.6559 226.466C28.1096 225.523 27.6129 224.579 27.1163 223.636L44.2999 214.398ZM232.624 32.3316L222.145 48.8696C221.351 48.3729 220.556 47.8763 219.761 47.3796L229.843 30.643C230.787 31.1893 231.73 31.7853 232.624 32.3316ZM47.0811 219.265C47.5777 220.06 48.0247 220.854 48.5213 221.649L31.9833 232.029C31.3874 231.135 30.8411 230.191 30.2948 229.248L47.0811 219.265ZM237.988 35.9074L226.814 51.9487C226.069 51.4024 225.274 50.9058 224.479 50.3595L235.306 34.0698C236.25 34.7154 237.144 35.3114 237.988 35.9074ZM50.0609 224.033C50.5575 224.828 51.1038 225.573 51.6005 226.318L35.5095 237.442C34.9135 236.548 34.2679 235.654 33.6719 234.76L50.0609 224.033ZM243.252 39.7315L231.333 55.2265C230.588 54.6802 229.843 54.0842 229.098 53.5379L240.67 37.7946C241.514 38.4402 242.358 39.0858 243.252 39.7315ZM53.2394 228.602C53.7857 229.347 54.332 230.092 54.8783 230.837L39.3336 242.657C38.6879 241.813 38.0423 240.919 37.3967 240.074L53.2394 228.602ZM248.268 43.8039L235.703 58.7526C235.008 58.1566 234.263 57.5607 233.518 56.9647L245.785 41.718C246.629 42.4133 247.424 43.1086 248.268 43.8039ZM56.6165 233.072C57.2124 233.817 57.7587 234.512 58.3547 235.257L43.3563 247.772C42.661 246.928 41.9657 246.133 41.3201 245.289L56.6165 233.072ZM253.135 48.0749L239.925 62.4774C239.229 61.8317 238.534 61.2358 237.839 60.5902L250.751 45.9394C251.546 46.6347 252.341 47.33 253.135 48.0749ZM60.1923 237.392C60.7882 238.088 61.4338 238.783 62.0298 239.478L47.5777 252.639C46.8328 251.845 46.1375 251.05 45.4422 250.206L60.1923 237.392ZM257.754 52.5447L243.898 66.3511C243.252 65.7055 242.557 65.0102 241.911 64.4142L255.469 50.3098C256.264 51.0051 257.009 51.75 257.754 52.5447ZM63.9667 241.515C64.6123 242.21 65.2579 242.855 65.9036 243.501L51.9978 257.258C51.2528 256.513 50.5079 255.718 49.7629 254.973L63.9667 241.515ZM260.038 54.8788L260.336 55.2265C261.081 56.0211 261.826 56.7661 262.522 57.5607L248.07 70.7215C247.424 70.0262 246.778 69.3309 246.133 68.6357L245.835 68.288L260.038 54.8788ZM69.9263 247.425L56.6661 261.777C55.8715 261.032 55.0769 260.337 54.332 259.542L67.8901 245.488C68.5854 246.133 69.2807 246.779 69.9263 247.425ZM74.1477 251.1L61.5332 266.048C60.7386 265.353 59.8943 264.658 59.0997 263.962L72.0122 249.312C72.7075 249.908 73.4524 250.504 74.1477 251.1ZM264.707 59.9942C265.402 60.7888 266.097 61.6331 266.793 62.4277L251.745 74.9429C251.149 74.2476 250.553 73.5027 249.907 72.8074L264.707 59.9942ZM78.5181 254.626L66.5989 270.121C65.7546 269.475 64.9103 268.78 64.066 268.134L76.3329 252.937C77.0282 253.483 77.7732 254.079 78.5181 254.626ZM268.829 64.9605C269.475 65.8048 270.17 66.6491 270.815 67.5431L255.221 79.3133C254.675 78.5684 254.079 77.8234 253.533 77.1281L268.829 64.9605ZM82.9878 257.953L71.7639 273.945C70.8699 273.349 69.976 272.703 69.1317 272.058L80.7033 256.314C81.4979 256.861 82.2429 257.407 82.9878 257.953ZM272.703 70.1256C273.348 71.0195 273.944 71.8638 274.59 72.7577L258.499 83.8327C257.953 83.0878 257.456 82.2931 256.91 81.5482L272.703 70.1256ZM87.6562 261.032L77.1772 277.521C76.2832 276.925 75.3893 276.378 74.4954 275.782L85.322 259.542C86.067 260.039 86.8616 260.536 87.6562 261.032ZM276.378 75.4396C276.974 76.3335 277.57 77.2771 278.116 78.1711L261.528 88.5011C261.032 87.7065 260.535 86.9118 260.038 86.1669L276.378 75.4396ZM92.4239 263.913L82.6899 280.848C81.7462 280.302 80.8523 279.755 79.9087 279.209L89.9904 262.473C90.8347 262.969 91.6293 263.466 92.4239 263.913ZM279.805 80.9025C280.351 81.8462 280.897 82.7401 281.443 83.6837L264.409 93.3184C263.962 92.5238 263.465 91.6796 263.018 90.8849L279.805 80.9025ZM97.3406 266.595L88.4012 283.977C87.4576 283.48 86.5139 282.984 85.5207 282.437L94.9071 265.303C95.7017 265.75 96.4963 266.197 97.3406 266.595ZM282.983 86.5642C283.48 87.5078 283.976 88.4514 284.473 89.4447L267.041 98.2848C266.644 97.4405 266.197 96.6459 265.75 95.8016L282.983 86.5642ZM102.357 269.078L94.1621 286.808C93.1689 286.361 92.2253 285.914 91.232 285.417L99.8238 267.836C100.668 268.283 101.512 268.681 102.357 269.078ZM285.913 92.3252C286.36 93.3184 286.857 94.2621 287.304 95.2553L269.475 103.301C269.077 102.457 268.68 101.612 268.283 100.768L285.913 92.3252ZM107.472 271.263L100.072 289.341C99.0788 288.943 98.0856 288.546 97.0923 288.099L104.84 270.17C105.783 270.568 106.628 270.915 107.472 271.263ZM288.595 98.2351C288.992 99.2284 289.439 100.222 289.837 101.215L271.66 108.466C271.312 107.572 270.964 106.728 270.567 105.883L288.595 98.2351ZM112.687 273.25L106.131 291.675C105.138 291.327 104.095 290.93 103.102 290.582L110.054 272.306C110.899 272.654 111.793 272.952 112.687 273.25ZM291.029 104.294C291.426 105.287 291.773 106.33 292.121 107.324L273.646 113.73C273.348 112.836 273.001 111.942 272.703 111.098L291.029 104.294ZM118.001 275.037L112.24 293.711C111.197 293.413 110.203 293.065 109.161 292.718L115.319 274.193C116.213 274.491 117.107 274.739 118.001 275.037ZM293.114 110.403C293.462 111.446 293.76 112.439 294.058 113.482L275.335 119.094C275.087 118.2 274.789 117.306 274.491 116.412L293.114 110.403ZM123.364 276.577L118.448 295.499C117.405 295.251 116.362 294.953 115.319 294.655L120.633 275.832C121.527 276.08 122.421 276.329 123.364 276.577ZM294.952 116.611C295.25 117.654 295.498 118.697 295.796 119.739L276.825 124.458C276.576 123.564 276.378 122.67 276.129 121.776L294.952 116.611ZM128.778 277.819L124.705 296.939C123.662 296.74 122.619 296.492 121.576 296.244L126.046 277.223C126.94 277.421 127.884 277.62 128.778 277.819ZM296.541 122.868C296.789 123.911 297.038 125.004 297.236 126.047L278.066 129.921C277.868 129.027 277.669 128.083 277.47 127.189L296.541 122.868ZM134.241 278.862L131.062 298.131C130.019 297.932 128.927 297.783 127.884 297.585L131.509 278.365C132.403 278.564 133.347 278.713 134.241 278.862ZM297.832 129.225C298.031 130.318 298.23 131.361 298.379 132.453L279.06 135.433C278.911 134.539 278.762 133.645 278.613 132.702L297.832 129.225ZM139.803 279.656L137.419 299.075C136.376 298.926 135.284 298.826 134.241 298.677L136.972 279.309C137.965 279.408 138.859 279.557 139.803 279.656ZM298.826 135.632C298.975 136.675 299.124 137.767 299.223 138.86L279.805 140.995C279.705 140.052 279.606 139.158 279.457 138.214L298.826 135.632ZM145.365 280.202L143.875 299.671C142.783 299.571 141.74 299.472 140.647 299.373L142.584 279.904C143.528 280.053 144.422 280.153 145.365 280.202ZM299.571 142.038C299.67 143.131 299.769 144.224 299.819 145.267L280.301 146.558C280.252 145.614 280.152 144.72 280.103 143.777L299.571 142.038ZM150.977 280.5L150.332 300.018C149.239 299.969 148.196 299.919 147.104 299.869L148.146 280.351C149.09 280.451 150.034 280.5 150.977 280.5ZM299.968 148.495C300.018 149.587 300.067 150.68 300.067 151.772L280.55 152.17C280.55 151.226 280.5 150.332 280.45 149.389L299.968 148.495ZM156.54 280.6L156.738 300.118C155.695 300.118 154.603 300.118 153.56 300.118L153.709 280.6C154.652 280.6 155.596 280.6 156.54 280.6ZM300.117 154.951C300.117 155.994 300.117 157.086 300.067 158.129L280.55 157.782C280.55 156.838 280.599 155.895 280.599 154.951H300.117ZM162.152 280.401L163.244 299.919C162.152 299.969 161.109 300.018 160.016 300.068L159.321 280.55C160.264 280.451 161.208 280.451 162.152 280.401ZM299.968 161.407C299.918 162.5 299.869 163.592 299.769 164.635L280.252 163.344C280.301 162.4 280.351 161.507 280.401 160.563L299.968 161.407ZM167.714 279.954L169.7 299.373C168.608 299.472 167.565 299.571 166.472 299.671L164.933 280.202C165.876 280.103 166.77 280.053 167.714 279.954ZM299.571 167.863C299.471 168.956 299.372 169.999 299.273 171.092L279.854 168.906C279.954 167.963 280.053 167.069 280.152 166.125L299.571 167.863ZM173.276 279.259L176.107 298.578C175.064 298.727 173.971 298.876 172.879 299.025L170.495 279.656C171.439 279.507 172.382 279.408 173.276 279.259ZM298.826 174.27C298.677 175.363 298.528 176.406 298.379 177.498L279.06 174.469C279.209 173.575 279.358 172.631 279.457 171.737L298.826 174.27ZM178.789 278.315L182.464 297.485C181.421 297.684 180.328 297.883 179.285 298.081L176.008 278.812C176.951 278.663 177.895 278.514 178.789 278.315ZM297.832 180.627C297.634 181.67 297.435 182.763 297.236 183.805L278.066 179.932C278.265 179.038 278.414 178.094 278.563 177.2L297.832 180.627ZM184.302 277.173L188.821 296.194C187.778 296.442 186.735 296.691 185.642 296.939L181.52 277.819C182.464 277.57 183.358 277.372 184.302 277.173ZM296.591 186.984C296.343 188.027 296.094 189.07 295.846 190.063L276.874 185.444C277.123 184.55 277.321 183.607 277.52 182.663L296.591 186.984ZM189.715 275.733L195.128 294.506C194.085 294.804 193.042 295.102 191.999 295.35L187.083 276.428C187.927 276.229 188.821 275.981 189.715 275.733ZM295.002 193.242C294.704 194.285 294.406 195.327 294.108 196.321L275.384 190.758C275.633 189.864 275.881 188.97 276.129 188.077L295.002 193.242ZM195.029 274.044L201.286 292.569C200.244 292.916 199.201 293.264 198.158 293.562L192.397 274.888C193.291 274.64 194.185 274.342 195.029 274.044ZM293.164 199.4C292.816 200.443 292.469 201.436 292.121 202.479L273.646 196.072C273.944 195.178 274.242 194.334 274.54 193.44L293.164 199.4ZM200.343 272.157L207.395 290.384C206.402 290.781 205.359 291.178 204.366 291.526L197.76 273.15C198.605 272.803 199.449 272.505 200.343 272.157ZM291.078 205.508C290.681 206.502 290.333 207.545 289.936 208.538L271.759 201.337C272.107 200.492 272.405 199.598 272.752 198.754L291.078 205.508ZM205.508 270.021L213.355 287.9C212.361 288.347 211.368 288.745 210.375 289.142L202.876 271.064C203.77 270.766 204.664 270.419 205.508 270.021ZM288.694 211.518C288.297 212.511 287.85 213.504 287.403 214.498L269.574 206.502C269.971 205.657 270.319 204.813 270.666 203.969L288.694 211.518ZM210.574 267.638L219.265 285.169C218.271 285.665 217.328 286.112 216.335 286.559L208.09 268.879C208.885 268.482 209.729 268.085 210.574 267.638ZM286.062 217.378C285.615 218.371 285.119 219.315 284.622 220.308L267.19 211.518C267.587 210.673 268.034 209.879 268.432 209.035L286.062 217.378ZM215.54 265.055L224.976 282.189C224.032 282.735 223.039 283.232 222.096 283.729L213.106 266.396C213.951 265.949 214.745 265.502 215.54 265.055ZM283.182 223.139C282.685 224.083 282.188 225.026 281.642 225.97L264.558 216.434C265.005 215.59 265.452 214.796 265.899 213.951L283.182 223.139ZM220.357 262.274L230.588 278.911C229.644 279.507 228.701 280.053 227.757 280.6L218.023 263.665C218.818 263.218 219.612 262.721 220.357 262.274ZM280.003 228.801C279.457 229.744 278.911 230.638 278.315 231.582L261.727 221.252C262.224 220.457 262.72 219.663 263.167 218.868L280.003 228.801ZM225.075 259.244L236.001 275.435C235.107 276.031 234.164 276.627 233.27 277.223L222.791 260.734C223.536 260.238 224.33 259.741 225.075 259.244ZM276.576 234.313C275.98 235.207 275.384 236.101 274.789 236.995L258.698 225.92C259.244 225.175 259.74 224.381 260.237 223.586L276.576 234.313ZM229.644 256.016L241.315 271.71C240.421 272.356 239.577 273.001 238.683 273.647L227.459 257.655C228.154 257.109 228.899 256.563 229.644 256.016ZM272.901 239.627C272.256 240.521 271.61 241.366 270.964 242.21L255.37 230.44C255.916 229.695 256.463 228.95 257.009 228.205L272.901 239.627ZM234.064 252.59L246.381 267.737C245.537 268.432 244.692 269.128 243.798 269.773L231.879 254.278C232.624 253.732 233.369 253.136 234.064 252.59ZM269.028 244.792C268.382 245.637 267.687 246.481 266.991 247.325L251.943 234.86C252.539 234.164 253.135 233.419 253.682 232.674L269.028 244.792ZM238.335 248.964L251.298 263.565C250.503 264.31 249.659 265.005 248.814 265.701L236.2 250.752C236.945 250.156 237.64 249.56 238.335 248.964ZM264.905 249.759C264.21 250.553 263.465 251.398 262.77 252.192L248.268 239.081C248.914 238.386 249.51 237.69 250.106 236.995L264.905 249.759ZM242.458 245.14L256.016 259.195L253.682 261.38L240.372 247.077L242.458 245.14ZM260.585 254.576C259.84 255.371 259.095 256.165 258.3 256.91L244.444 243.153C245.09 242.508 245.735 241.813 246.381 241.167L260.585 254.576Z"></path><path fill="url(#paint5_linear_104_438)" d="M56.0205 48.8697L69.3304 63.1728C68.6351 63.8184 67.9894 64.4144 67.3438 65.06L53.6367 51.1542C54.4313 50.3596 55.2259 49.6146 56.0205 48.8697ZM65.3076 67.0962C64.662 67.7419 64.0163 68.4371 63.4204 69.0828L49.1669 55.7233C49.9119 54.9286 50.6568 54.134 51.4515 53.3891L65.3076 67.0962ZM60.8379 44.5986L73.5021 59.4977C72.8068 60.0937 72.1115 60.6896 71.4162 61.3352L58.3547 46.7838C59.1493 45.9892 59.9936 45.2939 60.8379 44.5986ZM61.4835 71.2183C60.8875 71.9136 60.2419 72.6089 59.646 73.3042L44.7965 60.5903C45.4918 59.746 46.2368 58.9514 46.9321 58.1568L61.4835 71.2183ZM65.8042 40.4765L77.8228 55.9219C77.0779 56.4682 76.3826 57.0642 75.6873 57.6601L63.3211 42.5624C64.1157 41.8671 64.96 41.1718 65.8042 40.4765ZM57.8084 75.4397C57.2124 76.135 56.6661 76.8799 56.0702 77.5752L40.7241 65.5567C41.4194 64.7124 42.065 63.8681 42.7603 63.0238L57.8084 75.4397ZM71.0189 36.6525L82.2925 52.5945C81.5476 53.1408 80.8026 53.6871 80.0577 54.2334L68.3867 38.5397C69.231 37.894 70.125 37.2484 71.0189 36.6525ZM54.3816 79.8598C53.8353 80.6047 53.289 81.3497 52.7427 82.0946L36.8504 70.7217C37.496 69.8277 38.1416 68.9338 38.7873 68.0895L54.3816 79.8598ZM76.3329 33.027L86.9609 49.416C86.1663 49.9126 85.3717 50.4589 84.6267 50.9556L73.7007 34.7652C74.545 34.1693 75.439 33.623 76.3329 33.027ZM51.1038 84.3791C50.6072 85.1241 50.0609 85.9187 49.5643 86.6637L33.1753 76.0357C33.7712 75.1417 34.3672 74.1981 35.0128 73.3042L51.1038 84.3791ZM81.8456 29.6499L91.7286 46.5355C90.934 46.9825 90.0897 47.4791 89.2951 47.9757L79.0644 31.2888C80.008 30.7425 80.902 30.1962 81.8456 29.6499ZM48.0743 89.0972C47.5777 89.8918 47.1307 90.6864 46.6341 91.481L29.7981 81.5483C30.3444 80.6047 30.8907 79.6611 31.4867 78.7672L48.0743 89.0972ZM87.5072 26.4714L96.546 43.804C95.7017 44.251 94.9071 44.698 94.1125 45.1449L84.6764 28.0607C85.62 27.5144 86.5636 26.9681 87.5072 26.4714ZM45.2435 93.8649C44.7965 94.6595 44.3496 95.5038 43.9026 96.2984L26.6197 87.21C27.1163 86.2664 27.6626 85.3228 28.1593 84.3791L45.2435 93.8649ZM93.3179 23.5909L101.562 41.3208C100.718 41.7181 99.8734 42.1154 99.0292 42.5624L90.3877 24.9815C91.381 24.5345 92.3742 24.0379 93.3179 23.5909ZM42.661 98.7816C42.214 99.6259 41.8167 100.47 41.4194 101.364L23.7392 93.0206C24.1862 92.077 24.6331 91.1334 25.1298 90.1401L42.661 98.7816ZM99.2278 20.9588L106.727 39.0363C105.883 39.3839 105.038 39.7316 104.145 40.1289L96.1983 22.25C97.2413 21.803 98.2346 21.4057 99.2278 20.9588ZM40.2772 103.897C39.8799 104.741 39.5322 105.585 39.1846 106.43L21.1567 98.9306C21.554 97.9373 22.001 96.944 22.4479 95.9508L40.2772 103.897ZM105.287 18.6246L111.942 37.0001C111.048 37.2981 110.203 37.6457 109.31 37.9934L102.257 19.7668C103.251 19.3695 104.294 18.9722 105.287 18.6246ZM38.092 109.012C37.7443 109.857 37.3967 110.751 37.0987 111.644L18.7728 104.89C19.1701 103.897 19.5178 102.904 19.9151 101.91L38.092 109.012ZM111.395 16.5387L117.256 35.1625C116.362 35.4605 115.468 35.7585 114.574 36.0565L108.316 17.532C109.359 17.1843 110.402 16.8864 111.395 16.5387ZM36.2047 114.277C35.9068 115.171 35.6088 116.065 35.3108 116.958L16.687 110.999C16.9849 109.956 17.3326 108.963 17.6802 107.969L36.2047 114.277ZM117.653 14.7508L122.669 33.623C121.775 33.8713 120.881 34.1196 119.987 34.3679L114.574 15.5951C115.567 15.2971 116.61 14.9991 117.653 14.7508ZM34.4665 119.591C34.2182 120.485 33.9699 121.379 33.7216 122.223L14.8494 117.107C15.1474 116.065 15.4454 115.022 15.7434 113.979L34.4665 119.591ZM123.911 13.2112L128.082 32.2821C127.188 32.4807 126.245 32.6794 125.351 32.9277L120.782 13.9562C121.825 13.7079 122.868 13.4596 123.911 13.2112ZM33.0263 124.954C32.8276 125.848 32.5793 126.792 32.3807 127.686L13.3098 123.464C13.5582 122.421 13.8065 121.379 14.0548 120.336L33.0263 124.954ZM130.268 11.9697L133.595 31.2391C132.651 31.3881 131.757 31.5868 130.864 31.7358L127.089 12.5656C128.132 12.367 129.225 12.1683 130.268 11.9697ZM31.8344 130.417C31.6357 131.311 31.4867 132.255 31.3377 133.149L12.0683 129.772C12.2669 128.729 12.4656 127.636 12.6642 126.593L31.8344 130.417ZM136.674 11.0261L139.108 30.3948C138.164 30.4942 137.27 30.6432 136.327 30.7922L133.446 11.473C134.539 11.324 135.631 11.175 136.674 11.0261ZM30.8411 135.88C30.6921 136.824 30.5928 137.718 30.4438 138.661L11.075 136.178C11.224 135.135 11.373 134.043 11.522 133L30.8411 135.88ZM143.13 10.3804L144.67 29.8485C143.726 29.9479 142.832 29.9975 141.889 30.0969L139.853 10.6784C140.995 10.5294 142.038 10.4301 143.13 10.3804ZM30.1458 141.443C30.0465 142.386 29.9471 143.28 29.8975 144.224L10.4294 142.535C10.5287 141.443 10.628 140.4 10.7273 139.307L30.1458 141.443ZM149.587 9.98312L150.282 29.5009C149.338 29.5506 148.444 29.6002 147.501 29.6499L146.359 10.1321C147.401 10.0824 148.494 10.0328 149.587 9.98312ZM29.6492 147.055C29.5995 147.998 29.5498 148.892 29.5002 149.836L9.98238 148.991C10.032 147.899 10.0817 146.856 10.1314 145.763L29.6492 147.055ZM156.043 9.88379L155.844 29.4512C154.901 29.4512 154.007 29.4512 153.063 29.4512L152.765 9.93345C153.907 9.88379 154.95 9.88379 156.043 9.88379ZM29.4505 152.617C29.4505 153.561 29.4505 154.504 29.4505 155.398L9.88306 155.497C9.88306 154.405 9.88306 153.362 9.93272 152.269L29.4505 152.617ZM162.499 10.0824L161.456 29.6002C160.513 29.5506 159.619 29.5009 158.675 29.5009L159.221 9.98312C160.314 9.98312 161.407 10.0328 162.499 10.0824ZM29.4505 158.179C29.5002 159.123 29.5002 160.066 29.5498 161.01L10.032 161.904C9.98238 160.811 9.93272 159.768 9.93272 158.676L29.4505 158.179ZM168.955 10.5294L167.068 29.9975C166.125 29.8982 165.231 29.8485 164.287 29.7492L165.678 10.2314C166.77 10.3308 167.863 10.4301 168.955 10.5294ZM29.6988 163.791C29.7485 164.735 29.8478 165.678 29.9471 166.622L10.479 168.36C10.3797 167.317 10.2804 166.225 10.2307 165.182L29.6988 163.791ZM175.362 11.324L172.631 30.6928C171.687 30.5438 170.793 30.4445 169.849 30.3452L172.134 10.9267C173.227 11.0261 174.269 11.175 175.362 11.324ZM30.2451 169.354C30.3444 170.297 30.4934 171.241 30.5928 172.135L11.224 174.767C11.075 173.724 10.926 172.631 10.8267 171.588L30.2451 169.354ZM181.719 12.367L178.094 31.5868C177.2 31.4378 176.306 31.2391 175.362 31.0901L178.491 11.8207C179.583 11.9697 180.676 12.1683 181.719 12.367ZM30.9901 174.916C31.1391 175.859 31.2881 176.753 31.4867 177.697L12.2669 181.223C12.0683 180.18 11.9193 179.088 11.7206 178.045L30.9901 174.916ZM188.026 13.6582L183.606 32.6794C182.712 32.4807 181.818 32.2821 180.875 32.0834L184.848 12.9629C185.94 13.2112 186.983 13.4099 188.026 13.6582ZM31.9833 180.379C32.182 181.322 32.3807 182.216 32.5793 183.16L13.5085 187.53C13.2602 186.487 13.0615 185.445 12.8132 184.402L31.9833 180.379ZM194.284 15.2475L189.02 34.0699C188.126 33.8216 187.232 33.5733 186.338 33.325L191.155 14.4032C192.198 14.7012 193.241 14.9991 194.284 15.2475ZM33.2746 185.891C33.5229 186.785 33.7216 187.679 33.9699 188.623L15.1474 193.838C14.8494 192.795 14.6011 191.752 14.3031 190.709L33.2746 185.891ZM200.442 17.1347L194.334 35.7088C193.44 35.4109 192.595 35.1625 191.701 34.8646L197.363 16.1414C198.406 16.489 199.399 16.787 200.442 17.1347ZM34.7645 191.305C35.0128 192.199 35.3108 193.093 35.6088 193.937L17.0346 199.996C16.687 198.953 16.389 197.91 16.0413 196.867L34.7645 191.305ZM206.501 19.3199L199.548 37.5961C198.704 37.2484 197.81 36.9504 196.916 36.6525L203.422 18.2273C204.515 18.5253 205.508 18.9226 206.501 19.3199ZM36.4531 196.619C36.751 197.513 37.0987 198.357 37.3967 199.251L19.1205 206.154C18.7232 205.161 18.3755 204.118 18.0279 203.125L36.4531 196.619ZM212.461 21.7037L204.763 39.6819C203.919 39.3343 203.025 38.937 202.18 38.5893L209.531 20.4621C210.524 20.8594 211.517 21.3064 212.461 21.7037ZM38.4396 201.883C38.7873 202.727 39.1349 203.621 39.5322 204.466L21.554 212.164C21.107 211.17 20.7097 210.177 20.3124 209.184L38.4396 201.883ZM218.371 24.3856L209.829 41.9665C208.984 41.5691 208.14 41.1718 207.296 40.7745L215.441 22.995C216.434 23.4916 217.377 23.9386 218.371 24.3856ZM40.6745 207.048C41.0718 207.892 41.4691 208.737 41.8664 209.581L24.2855 218.073C23.7889 217.08 23.3419 216.087 22.8949 215.143L40.6745 207.048ZM224.132 27.3654L214.795 44.549C213.951 44.102 213.156 43.655 212.312 43.2577L221.251 25.8755C222.195 26.3224 223.188 26.8687 224.132 27.3654ZM43.108 212.064C43.5053 212.908 43.9523 213.703 44.3992 214.547L27.2156 223.834C26.719 222.891 26.1727 221.898 25.7257 220.954L43.108 212.064ZM229.744 30.5438L219.662 47.2805C218.867 46.7838 218.073 46.3368 217.228 45.8899L226.963 28.9049C227.856 29.4512 228.8 29.9975 229.744 30.5438ZM45.7402 216.981C46.1871 217.775 46.6838 218.62 47.1804 219.414L30.3941 229.446C29.8478 228.503 29.3015 227.609 28.7552 226.665L45.7402 216.981ZM235.207 34.0203L224.43 50.3099C223.635 49.8133 222.84 49.267 222.096 48.7704L232.525 32.2324C233.369 32.8284 234.313 33.4243 235.207 34.0203ZM48.6206 221.798C49.1173 222.593 49.6139 223.387 50.1602 224.182L33.8209 234.909C33.2249 234.015 32.629 233.122 32.0827 232.178L48.6206 221.798ZM240.471 37.6954L228.949 53.4884C228.204 52.9421 227.41 52.3958 226.665 51.8495L237.889 35.8578C238.733 36.4538 239.627 37.0994 240.471 37.6954ZM51.6998 226.467C52.2461 227.212 52.7924 228.006 53.3387 228.751L37.5457 240.223C36.9 239.329 36.3041 238.485 35.6585 237.591L51.6998 226.467ZM245.636 41.6685L233.419 56.9152C232.674 56.3192 231.979 55.7729 231.234 55.177L243.103 39.6819C243.947 40.3276 244.792 40.9732 245.636 41.6685ZM54.9776 230.986C55.5239 231.731 56.1198 232.426 56.6661 233.171L41.4194 245.388C40.7241 244.544 40.0785 243.7 39.4329 242.806L54.9776 230.986ZM250.602 45.7905L237.69 60.4413C236.995 59.8453 236.299 59.1997 235.604 58.6534L248.119 43.7047C248.963 44.4 249.758 45.0953 250.602 45.7905ZM58.454 235.356C59.05 236.052 59.646 236.797 60.2916 237.492L45.5912 250.355C44.8959 249.56 44.2006 248.716 43.5053 247.921L58.454 235.356ZM255.37 50.1609L241.812 64.2654C241.117 63.6198 240.471 62.9741 239.776 62.3782L252.986 47.9757C253.781 48.671 254.575 49.416 255.37 50.1609ZM62.1291 239.578C62.7748 240.273 63.3707 240.968 64.0163 241.614L49.8622 255.123C49.1173 254.328 48.3723 253.533 47.677 252.739L62.1291 239.578ZM258.002 52.7931C258.747 53.5381 259.492 54.3327 260.237 55.1273L246.083 68.5365C245.437 67.8412 244.792 67.1955 244.146 66.5499L243.798 66.2023L257.655 52.4455L258.002 52.7931ZM67.9894 245.587L54.4313 259.692C53.6367 258.947 52.8917 258.202 52.1468 257.407L66.0029 243.601C66.6982 244.296 67.3438 244.941 67.9894 245.587ZM262.472 57.4615C263.217 58.2561 263.912 59.0507 264.607 59.895L249.857 72.7082C249.261 72.0129 248.616 71.3176 248.02 70.6223L262.472 57.4615ZM72.1115 249.362L59.199 264.062C58.4044 263.367 57.6097 262.622 56.8151 261.877L70.0256 247.474C70.7209 248.12 71.4162 248.766 72.1115 249.362ZM266.693 62.3285C267.389 63.1728 268.084 64.0171 268.73 64.8614L253.433 76.9793C252.837 76.2343 252.291 75.539 251.695 74.8437L266.693 62.3285ZM76.4322 252.987L64.215 268.234C63.3707 267.538 62.5264 266.893 61.7318 266.197L74.3464 251.249C74.992 251.795 75.6873 252.391 76.4322 252.987ZM270.716 67.3942C271.362 68.2385 272.007 69.1324 272.653 70.0264L256.81 81.449C256.264 80.704 255.718 79.9591 255.171 79.2141L270.716 67.3942ZM80.8523 256.414L69.2807 272.157C68.4364 271.511 67.5425 270.866 66.6982 270.22L78.6174 254.725C79.3624 255.271 80.1074 255.818 80.8523 256.414ZM274.491 72.6089C275.087 73.5028 275.732 74.3968 276.278 75.2907L259.939 86.018C259.443 85.2234 258.896 84.4785 258.4 83.6839L274.491 72.6089ZM85.4213 259.592L74.5947 275.832C73.7007 275.236 72.8068 274.64 71.9625 274.044L83.0872 258.003C83.8818 258.549 84.6764 259.096 85.4213 259.592ZM278.066 78.0222C278.613 78.9162 279.209 79.8598 279.755 80.7537L262.969 90.7858C262.472 89.9911 261.975 89.1965 261.479 88.4019L278.066 78.0222ZM90.1394 262.572L80.0577 279.309C79.1637 278.762 78.2201 278.166 77.3262 277.62L87.8052 261.132C88.5502 261.628 89.3448 262.125 90.1394 262.572ZM281.344 83.5845C281.89 84.5281 282.387 85.4717 282.884 86.4154L265.7 95.6528C265.253 94.8582 264.806 94.0139 264.359 93.2193L281.344 83.5845ZM95.0064 265.353L85.6697 282.537C84.7261 282.04 83.7825 281.494 82.8388 280.948L92.5729 264.012C93.3675 264.459 94.2118 264.906 95.0064 265.353ZM284.423 89.2958C284.92 90.2394 285.367 91.2327 285.863 92.226L268.233 100.669C267.836 99.8245 267.438 98.9802 266.991 98.136L284.423 89.2958ZM99.9728 267.936L91.4306 285.517C90.487 285.02 89.4938 284.573 88.5502 284.076L97.4896 266.694C98.2842 267.091 99.1285 267.538 99.9728 267.936ZM287.254 95.1065C287.701 96.0998 288.148 97.093 288.545 98.0863L270.567 105.734C270.219 104.89 269.822 104.046 269.425 103.152L287.254 95.1065ZM105.038 270.27L97.2413 288.198C96.248 287.751 95.3044 287.354 94.3111 286.907L102.456 269.128C103.35 269.525 104.194 269.922 105.038 270.27ZM289.787 101.066C290.184 102.059 290.582 103.053 290.929 104.046L272.653 110.999C272.305 110.105 271.958 109.211 271.61 108.367L289.787 101.066ZM110.203 272.356L103.251 290.632C102.257 290.235 101.264 289.837 100.271 289.44L107.621 271.313C108.465 271.71 109.359 272.058 110.203 272.356ZM292.022 107.175C292.369 108.218 292.717 109.211 293.065 110.254L274.491 116.263C274.193 115.369 273.895 114.475 273.597 113.631L292.022 107.175ZM115.468 274.243L109.359 292.817C108.316 292.469 107.323 292.122 106.28 291.774L112.836 273.349C113.73 273.647 114.574 273.945 115.468 274.243ZM294.058 113.333C294.356 114.376 294.654 115.419 294.952 116.462L276.129 121.627C275.881 120.733 275.633 119.839 275.335 118.945L294.058 113.333ZM120.782 275.882L115.468 294.704C114.425 294.406 113.432 294.108 112.389 293.81L118.1 275.137C118.994 275.336 119.888 275.634 120.782 275.882ZM295.747 119.541C295.995 120.584 296.243 121.627 296.492 122.719L277.421 127.04C277.222 126.146 276.974 125.203 276.775 124.309L295.747 119.541ZM126.195 277.272L121.725 296.294C120.682 296.045 119.64 295.797 118.597 295.499L123.513 276.577C124.407 276.825 125.301 277.024 126.195 277.272ZM297.187 125.898C297.385 126.941 297.584 127.984 297.783 129.076L278.563 132.602C278.414 131.659 278.215 130.765 278.017 129.821L297.187 125.898ZM131.658 278.415L128.033 297.634C126.99 297.436 125.947 297.237 124.904 296.989L128.927 277.868C129.821 278.067 130.764 278.216 131.658 278.415ZM298.329 132.255C298.478 133.298 298.627 134.341 298.776 135.433L279.407 138.115C279.258 137.172 279.159 136.228 279.01 135.284L298.329 132.255ZM137.171 279.309L134.439 298.677C133.347 298.528 132.304 298.379 131.211 298.181L134.439 278.911C135.333 279.06 136.277 279.209 137.171 279.309ZM299.223 138.661C299.372 139.754 299.471 140.797 299.571 141.89L280.103 143.677C280.003 142.734 279.904 141.84 279.805 140.896L299.223 138.661ZM142.733 280.004L140.796 299.472C139.753 299.373 138.661 299.224 137.618 299.124L139.902 279.706C140.846 279.805 141.79 279.905 142.733 280.004ZM299.769 145.118C299.819 146.21 299.918 147.253 299.968 148.346L280.45 149.24C280.401 148.296 280.351 147.353 280.301 146.459L299.769 145.118ZM148.295 280.401L147.253 299.919C146.21 299.869 145.117 299.77 144.074 299.72L145.514 280.252C146.408 280.302 147.352 280.352 148.295 280.401ZM300.067 151.524C300.117 152.617 300.117 153.71 300.117 154.802H280.55C280.55 153.858 280.549 152.965 280.5 152.021L300.067 151.524ZM153.907 280.6L153.709 300.118C152.616 300.118 151.573 300.068 150.53 300.068L151.126 280.55C152.02 280.55 152.964 280.55 153.907 280.6ZM300.067 158.03C300.067 159.123 300.018 160.166 299.968 161.258L280.45 160.414C280.5 159.47 280.5 158.527 280.55 157.583L300.067 158.03ZM159.47 280.501L160.165 300.018C159.072 300.068 158.029 300.068 156.937 300.118L156.689 280.6C157.632 280.55 158.576 280.55 159.47 280.501ZM299.819 164.486C299.769 165.529 299.67 166.622 299.571 167.665L280.103 165.976C280.202 165.033 280.252 164.089 280.301 163.146L299.819 164.486ZM165.082 280.203L166.621 299.671C165.529 299.77 164.486 299.82 163.393 299.869L162.301 280.352C163.244 280.302 164.138 280.252 165.082 280.203ZM299.273 170.893C299.173 171.986 299.024 173.029 298.875 174.121L279.507 171.539C279.656 170.595 279.755 169.701 279.854 168.807L299.273 170.893ZM170.644 279.607L173.078 298.975C171.985 299.124 170.942 299.224 169.849 299.323L167.863 279.905C168.806 279.855 169.7 279.756 170.644 279.607ZM298.428 177.3C298.279 178.343 298.081 179.386 297.882 180.478L278.662 177.101C278.811 176.157 278.96 175.263 279.109 174.32L298.428 177.3ZM176.206 278.812L179.484 298.081C178.441 298.28 177.349 298.429 176.306 298.578L173.425 279.259C174.319 279.11 175.263 278.961 176.206 278.812ZM297.286 183.657C297.087 184.7 296.839 185.742 296.641 186.785L277.57 182.564C277.768 181.62 277.967 180.726 278.166 179.783L297.286 183.657ZM181.719 277.719L185.841 296.84C184.798 297.088 183.706 297.287 182.663 297.486L178.988 278.315C179.881 278.117 180.775 277.918 181.719 277.719ZM295.896 189.964C295.647 191.007 295.349 192.05 295.101 193.093L276.229 187.977C276.477 187.083 276.725 186.189 276.924 185.296L295.896 189.964ZM187.132 276.428L192.148 295.3C191.105 295.598 190.062 295.847 188.97 296.095L184.451 277.074C185.344 276.875 186.238 276.676 187.132 276.428ZM294.207 196.172C293.909 197.215 293.611 198.208 293.263 199.251L274.64 193.291C274.938 192.397 275.186 191.503 275.484 190.61L294.207 196.172ZM192.546 274.889L198.356 293.562C197.313 293.86 196.32 294.208 195.277 294.506L189.864 275.733C190.758 275.435 191.652 275.137 192.546 274.889ZM292.22 202.28C291.873 203.323 291.525 204.317 291.128 205.36L272.802 198.556C273.1 197.711 273.448 196.817 273.746 195.973L292.22 202.28ZM197.86 273.101L204.465 291.476C203.472 291.824 202.429 292.172 201.435 292.519L195.178 273.995C196.072 273.697 196.966 273.399 197.86 273.101ZM289.986 208.389C289.588 209.382 289.191 210.376 288.744 211.369L270.766 203.77C271.113 202.926 271.461 202.032 271.809 201.188L289.986 208.389ZM203.074 271.064L210.574 289.092C209.58 289.49 208.537 289.937 207.544 290.284L200.492 272.058C201.336 271.76 202.18 271.412 203.074 271.064ZM287.502 214.299C287.055 215.292 286.608 216.286 286.161 217.279L268.481 208.886C268.879 208.041 269.276 207.197 269.624 206.353L287.502 214.299ZM208.19 268.78L216.484 286.51C215.49 286.957 214.547 287.404 213.553 287.851L205.657 269.972C206.501 269.575 207.345 269.227 208.19 268.78ZM284.721 220.159C284.225 221.103 283.778 222.047 283.231 223.04L265.948 213.902C266.395 213.057 266.842 212.213 267.24 211.419L284.721 220.159ZM213.206 266.297L222.294 283.58C221.301 284.076 220.357 284.573 219.364 285.07L210.772 267.538C211.567 267.141 212.411 266.744 213.206 266.297ZM281.692 225.871C281.195 226.814 280.649 227.708 280.103 228.652L263.217 218.769C263.714 217.974 264.161 217.13 264.607 216.335L281.692 225.871ZM218.122 263.615L227.956 280.501C227.012 281.047 226.069 281.593 225.125 282.09L215.689 264.956C216.484 264.559 217.278 264.062 218.122 263.615ZM278.414 231.433C277.868 232.327 277.272 233.221 276.676 234.115L260.287 223.487C260.783 222.692 261.28 221.898 261.777 221.103L278.414 231.433ZM222.89 260.685L233.468 277.123C232.575 277.719 231.631 278.266 230.737 278.862L220.506 262.175C221.301 261.678 222.095 261.181 222.89 260.685ZM274.888 236.846C274.292 237.74 273.646 238.585 273.05 239.478L257.158 228.106C257.704 227.361 258.251 226.566 258.797 225.771L274.888 236.846ZM227.509 257.556L238.832 273.498C237.938 274.144 237.044 274.74 236.15 275.336L225.224 259.145C225.969 258.649 226.764 258.102 227.509 257.556ZM271.113 242.111C270.468 242.955 269.822 243.799 269.177 244.643L253.781 232.575C254.377 231.83 254.923 231.085 255.519 230.34L271.113 242.111ZM231.979 254.229L243.997 269.674C243.153 270.32 242.309 271.015 241.415 271.611L229.744 255.917C230.538 255.371 231.283 254.775 231.979 254.229ZM267.091 247.176C266.395 248.021 265.75 248.815 265.054 249.61L250.205 236.896C250.801 236.201 251.447 235.456 252.043 234.711L267.091 247.176ZM236.349 250.702L249.013 265.602C248.219 266.297 247.374 266.992 246.58 267.638L234.213 252.54C234.909 251.894 235.604 251.298 236.349 250.702ZM262.869 252.093C262.174 252.888 261.429 253.682 260.684 254.427L246.431 241.068C247.076 240.372 247.722 239.677 248.368 238.982L262.869 252.093ZM240.521 246.978L253.831 261.281C253.036 262.026 252.241 262.721 251.447 263.416L238.385 248.865C239.13 248.269 239.825 247.623 240.521 246.978ZM258.449 256.761L257.208 258.003L256.165 259.046L242.507 245.09L243.451 244.147L244.494 243.104L258.449 256.761Z"></path><path fill="#484542" d="M99.3768 138.313H99.1781L91.7286 159.718H86.7622L79.3127 138.313H79.1141L77.3758 159.917H69.0323L72.3101 123.464H81.1503L89.2454 144.521L97.3406 123.464H106.181L109.458 159.917H101.165L99.3768 138.313Z"></path><path fill="#484542" d="M128.48 122.818C138.611 122.818 146.806 131.063 146.806 141.691C146.806 152.368 138.959 160.612 128.48 160.612C117.703 160.612 110.104 152.368 110.104 141.691C110.104 131.013 118.448 122.818 128.48 122.818ZM128.48 152.567C135.135 152.567 137.866 147.154 137.866 141.691C137.866 136.277 134.936 130.814 128.48 130.814C122.073 130.814 119.044 136.228 119.044 141.691C119.093 147.104 121.676 152.567 128.48 152.567Z"></path><path fill="#484542" d="M158.824 159.917H150.53V123.464H158.824L173.326 146.11H173.425V123.464H181.719V159.917H173.425L158.923 137.32H158.824V159.917Z"></path><path fill="#484542" d="M207.892 130.764H195.327V138.015H207.345V145.316H195.327V152.666H207.892V159.917H187.033V123.464H207.892V130.764Z"></path><path fill="#484542" d="M218.669 123.464L226.267 135.135L233.866 123.464H243.848L230.439 143.578V159.917H222.145V143.578L208.686 123.464H218.669Z"></path><path fill="#484542" d="M111.346 209.979H112.885C115.07 209.979 116.163 211.071 116.163 213.256V217.18C116.163 217.279 116.064 217.378 115.815 217.527H113.283C113.134 217.527 113.084 217.478 113.084 217.329V213.058H111.346V232.476H113.084V224.381H112.538C112.389 224.381 112.339 224.331 112.339 224.182V221.5C112.339 221.351 112.438 221.302 112.538 221.302H115.915C116.064 221.302 116.113 221.401 116.113 221.5V232.228C116.113 234.016 115.269 235.108 113.581 235.506H111.296C109.26 235.257 108.217 234.413 108.217 232.873V212.561C108.267 211.121 109.31 210.227 111.346 209.979Z"></path><path fill="#484542" d="M118.348 209.929H120.881C120.98 209.929 121.08 210.028 121.229 210.276V232.426H122.868V210.177C122.868 210.028 122.967 209.978 123.066 209.978H125.699C125.848 210.028 125.897 210.078 125.897 210.177V232.873C125.897 234.463 124.854 235.406 122.719 235.555H121.378C119.689 235.555 118.597 234.86 118.1 233.42C118.05 232.675 118.001 232.079 118.001 231.681V210.276C118.001 210.177 118.1 210.028 118.348 209.929Z"></path><path fill="#484542" d="M130.913 209.979H133.645C133.893 209.979 134.39 213.803 135.184 221.401C135.234 221.401 135.83 226.07 136.923 235.456L136.724 235.555H134.191C133.893 235.555 133.595 233.867 133.297 230.49H131.311C130.913 233.867 130.665 235.555 130.566 235.555H127.933C127.784 235.555 127.735 235.506 127.735 235.357C129.721 218.421 130.764 209.979 130.913 209.979ZM132.353 221.252H132.254C132.254 222.146 132.055 224.182 131.708 227.41H132.9C132.9 226.665 132.701 224.629 132.353 221.252Z"></path><path fill="#484542" d="M139.108 209.929H142.932C144.869 209.929 146.011 210.525 146.458 211.667C146.557 211.915 146.607 212.114 146.657 212.263C146.706 212.412 146.706 212.561 146.706 212.66V221.649C146.706 222.146 146.408 222.792 145.812 223.636C146.706 231.036 147.153 235.009 147.153 235.505L146.955 235.555H144.422C144.124 235.555 143.875 234.115 143.677 231.185C143.627 231.185 143.329 228.9 142.783 224.281H142.038V235.257C142.038 235.356 141.939 235.456 141.69 235.555H139.157C139.008 235.555 138.909 235.456 138.81 235.257V210.227C138.76 210.177 138.859 210.028 139.108 209.929ZM141.939 221.202H143.577V213.107H141.939V221.202Z"></path><path fill="#484542" d="M152.12 209.979H154.851C155.099 209.979 155.596 213.803 156.391 221.401C156.44 221.401 157.036 226.07 158.129 235.456L157.93 235.555H155.397C155.099 235.555 154.851 233.867 154.503 230.49H152.517C152.12 233.867 151.871 235.555 151.772 235.555H149.14C148.991 235.555 148.941 235.506 148.941 235.357C150.928 218.421 151.971 209.979 152.12 209.979ZM153.56 221.252H153.46C153.46 222.146 153.262 224.182 152.914 227.41H154.106C154.106 226.665 153.907 224.629 153.56 221.252Z"></path><path fill="#484542" d="M160.314 209.929H162.847C163.145 209.929 163.492 211.468 163.939 214.547C164.138 215.193 164.684 218.074 165.578 223.09H165.678V210.276C165.678 210.177 165.777 210.078 166.025 209.929H168.211C168.31 209.929 168.409 210.028 168.558 210.276V235.307C168.558 235.406 168.459 235.505 168.211 235.605H165.777C165.578 235.605 165.429 235.058 165.231 233.966C165.032 232.873 164.684 231.185 164.237 228.95C164.088 228.255 163.89 227.361 163.691 226.218C163.443 225.126 163.195 223.735 162.946 222.146H162.847V235.307C162.847 235.406 162.748 235.505 162.499 235.605H160.314C160.165 235.605 160.066 235.505 159.966 235.307V210.276C159.966 210.177 160.066 210.028 160.314 209.929Z"></path><path fill="#484542" d="M170.594 209.929H178.938C179.087 209.978 179.137 210.028 179.137 210.127V212.859C179.137 213.008 179.087 213.058 178.938 213.058H176.306V235.207C176.306 235.307 176.206 235.406 175.958 235.505H173.425C173.276 235.505 173.227 235.456 173.227 235.307V213.058H170.594C170.445 213.058 170.396 212.958 170.396 212.859V210.127C170.346 209.978 170.445 209.929 170.594 209.929Z"></path><path fill="#484542" d="M181.173 209.979H187.43C187.579 210.028 187.629 210.078 187.629 210.177V212.809C187.629 212.958 187.53 213.008 187.43 213.008H184.004V221.252H186.834C186.983 221.252 187.033 221.351 187.033 221.451V224.083C187.033 224.232 186.934 224.282 186.834 224.282H184.004V232.377H187.43C187.579 232.426 187.629 232.476 187.629 232.575V235.208C187.629 235.357 187.53 235.406 187.43 235.406H181.173C181.024 235.406 180.974 235.357 180.974 235.208V210.078C180.974 210.028 181.024 209.979 181.173 209.979Z"></path><path fill="#484542" d="M189.715 209.979H195.972C196.121 210.028 196.171 210.078 196.171 210.177V212.809C196.171 212.958 196.072 213.008 195.972 213.008H192.546V221.252H195.377C195.526 221.252 195.575 221.351 195.575 221.451V224.083C195.575 224.232 195.476 224.282 195.377 224.282H192.546V232.377H195.972C196.121 232.426 196.171 232.476 196.171 232.575V235.208C196.171 235.357 196.072 235.406 195.972 235.406H189.715C189.566 235.406 189.516 235.357 189.516 235.208V210.078C189.467 210.028 189.566 209.979 189.715 209.979Z"></path><path fill="#484542" d="M198.207 209.979H203.124C204.713 209.979 205.607 211.021 205.856 213.058V232.476C205.607 234.512 204.713 235.555 203.124 235.555H198.207C198.058 235.555 198.009 235.506 198.009 235.357V210.227C198.009 210.028 198.058 209.979 198.207 209.979ZM201.088 232.476H202.826V213.058H201.088V232.476Z"></path><path fill="#484542" d="M101.314 164.287C107.919 164.287 113.183 166.77 113.183 174.071C113.183 177.597 111.644 180.676 108.366 182.315C113.183 183.159 116.56 185.841 116.56 191.999C116.56 198.356 111.942 202.727 103.946 202.727H89.3448V164.237H101.314V164.287ZM98.8305 179.385C102.605 179.385 104.641 178.242 104.641 175.014C104.641 172.283 102.655 171.091 98.8305 171.091H98.1352V179.385H98.8305ZM100.867 196.022C105.038 196.022 107.323 194.78 107.323 191.751C107.323 188.225 105.038 186.934 100.867 186.934H98.1352V196.022H100.867Z"></path><path fill="#484542" d="M154.603 202.826H145.167L142.336 195.128H127.685L124.854 202.826H115.418L130.963 164.337H139.058L154.603 202.826ZM135.035 176.207H134.936L130.665 187.43H139.356L135.035 176.207Z"></path><path fill="#484542" d="M182.663 192.496L186.387 199.946C186.387 199.946 182.067 203.472 173.723 203.472C162.847 203.472 152.865 194.582 152.865 183.606C152.865 172.531 162.797 163.592 173.723 163.592C182.067 163.592 186.387 167.118 186.387 167.118L182.663 174.567C182.663 174.567 179.584 172.184 175.114 172.184C166.274 172.184 162.4 178.342 162.4 183.457C162.4 188.622 166.274 194.781 175.114 194.781C179.584 194.88 182.663 192.496 182.663 192.496Z"></path><path fill="#484542" d="M212.709 202.826L198.505 186.487V202.826H189.715V164.337H198.505V180.08L211.716 164.337H222.344L206.849 182.613L224.777 202.876H212.709V202.826Z"></path><path fill="#484542" d="M114.276 85.819C114.028 85.968 113.581 86.1666 112.985 86.3653C112.389 86.5639 111.892 86.7626 111.594 86.8619C110.303 87.2592 109.508 87.5572 109.21 87.7062V82.6902C110.203 82.2929 111.395 81.6969 112.786 80.9519C114.177 80.207 115.17 79.462 115.766 78.8164H121.03V114.028H114.276V85.819Z"></path><path fill="#484542" d="M128.877 111.942C127.288 110.104 126.443 107.621 126.443 104.542V88.7488C126.443 85.5207 127.238 82.9878 128.778 81.1503C130.367 79.3127 132.701 78.3691 135.88 78.3691C139.008 78.3691 141.343 79.2631 142.932 81.1503C144.471 82.9878 145.266 85.5207 145.266 88.7488V104.542C145.266 107.621 144.471 110.104 142.832 111.942C141.194 113.779 138.909 114.723 135.88 114.723C132.8 114.673 130.466 113.779 128.877 111.942ZM138.462 104.393V88.8481C138.462 87.5569 138.313 86.4643 137.965 85.5704C137.618 84.7261 136.922 84.2791 135.88 84.2791C134.787 84.2791 134.092 84.7261 133.744 85.5704C133.446 86.4146 133.247 87.5072 133.247 88.8481V104.393C133.247 107.323 134.092 108.813 135.88 108.813C137.618 108.763 138.462 107.323 138.462 104.393Z"></path><path fill="#484542" d="M151.375 111.942C149.785 110.104 148.941 107.621 148.941 104.542V88.7488C148.941 85.5207 149.736 82.9878 151.275 81.1503C152.815 79.3127 155.199 78.3691 158.377 78.3691C161.506 78.3691 163.84 79.2631 165.429 81.1503C167.019 82.9878 167.764 85.5207 167.764 88.7488V104.542C167.764 107.621 166.969 110.104 165.33 111.942C163.691 113.779 161.407 114.723 158.377 114.723C155.348 114.673 153.013 113.779 151.375 111.942ZM160.96 104.393V88.8481C160.96 87.5569 160.811 86.4643 160.463 85.5704C160.115 84.7261 159.42 84.2791 158.377 84.2791C157.285 84.2791 156.589 84.7261 156.242 85.5704C155.944 86.4146 155.745 87.5072 155.745 88.8481V104.393C155.745 107.323 156.589 108.813 158.377 108.813C160.115 108.763 160.96 107.323 160.96 104.393Z"></path><path fill="#484542" d="M172.829 96.3475C171.588 94.8576 170.992 92.5731 170.992 89.4939V87.706C170.992 84.5772 171.588 82.2927 172.78 80.9021C173.972 79.5115 176.008 78.7666 178.888 78.7666C181.769 78.7666 183.855 79.4619 185.046 80.8525C186.288 82.243 186.884 84.4779 186.884 87.5571V89.5436C186.884 92.6227 186.238 94.9073 184.997 96.3475C183.755 97.8374 181.719 98.5824 178.888 98.5824C176.057 98.632 174.071 97.8374 172.829 96.3475ZM180.924 93.1194C181.222 92.3744 181.371 91.0832 181.371 89.2953V87.7557C181.371 86.5638 181.322 85.6698 181.222 85.0242C181.123 84.3786 180.875 83.9316 180.527 83.584C180.179 83.2363 179.633 83.0873 178.888 83.0873C178.143 83.0873 177.647 83.2363 177.299 83.584C176.951 83.9316 176.703 84.3786 176.604 85.0242C176.504 85.6698 176.455 86.5638 176.455 87.7557V89.3449C176.455 91.1328 176.604 92.3744 176.902 93.1194C177.2 93.8643 177.845 94.2616 178.888 94.2616C179.931 94.2616 180.626 93.8643 180.924 93.1194ZM193.738 78.8659H197.711L187.132 114.077H183.159L193.738 78.8659ZM195.873 111.942C194.632 110.452 194.036 108.167 194.036 105.088V103.251C194.036 100.122 194.632 97.8871 195.823 96.4468C197.015 95.0066 199.052 94.3113 201.932 94.3113C204.813 94.3113 206.849 95.0066 208.041 96.3972C209.282 97.7877 209.878 100.023 209.878 103.151V105.088C209.878 108.167 209.233 110.452 207.991 111.892C206.749 113.382 204.713 114.127 201.882 114.127C199.151 114.177 197.115 113.432 195.873 111.942ZM203.919 108.714C204.217 107.969 204.366 106.678 204.366 104.89V103.35C204.366 102.108 204.316 101.215 204.217 100.619C204.117 100.023 203.919 99.526 203.571 99.228C203.223 98.8803 202.677 98.7314 201.932 98.7314C201.187 98.7314 200.641 98.8803 200.293 99.228C199.946 99.5756 199.747 100.023 199.648 100.668C199.548 101.314 199.499 102.208 199.499 103.4V104.939C199.499 106.727 199.648 107.969 199.946 108.763C200.244 109.508 200.889 109.906 201.932 109.906C202.975 109.856 203.67 109.508 203.919 108.714Z"></path><path fill="#484542" d="M71.7142 177.2L73.3531 180.528L77.0282 181.074L74.3464 183.656L74.992 187.332L71.7142 185.593L68.3867 187.332L69.0324 183.656L66.3505 181.074L70.0256 180.528L71.7142 177.2Z"></path><path fill="#484542" d="M236.895 177.2L238.534 180.528L242.209 181.074L239.577 183.656L240.173 187.332L236.895 185.593L233.617 187.332L234.213 183.656L231.581 181.074L235.256 180.528L236.895 177.2Z"></path><path fill="#484542" d="M231.234 110.8C230.538 109.111 229.446 106.429 228.055 103.45C226.267 99.6752 223.883 95.4042 221.45 91.8284C217.775 86.4647 214.1 82.6406 214.1 82.6406C214.1 82.6406 218.718 85.9184 223.337 90.7358C226.466 93.9143 229.545 97.8377 231.78 101.314C233.518 103.996 234.76 106.429 235.455 108.118C238.435 115.22 237.541 117.256 236.349 118.001C235.207 118.746 234.213 117.902 231.234 110.8Z"></path><path fill="#484542" d="M77.9718 110.8C78.6671 109.111 79.7597 106.429 81.1503 103.45C82.9381 99.6752 85.322 95.4042 87.7555 91.8284C91.4306 86.4647 95.1057 82.6406 95.1057 82.6406C95.1057 82.6406 90.487 85.9184 85.8683 90.7358C82.7395 93.9143 79.6604 97.8377 77.4255 101.314C75.6873 103.996 74.4457 106.429 73.7504 108.118C70.7706 115.22 71.6645 117.256 72.8564 118.001C73.949 118.746 74.9423 117.902 77.9718 110.8Z"></path><path fill="#484542" d="M178.094 242.21H135.284V244.197H178.094V242.21Z"></path><path fill="#484542" d="M155.695 56.3682L157.185 60.9372H161.953L158.079 63.768L159.569 68.2874L155.695 65.5063L151.822 68.2874L153.311 63.768L149.438 60.9372H154.205L155.695 56.3682Z"></path></g><defs><linearGradient gradientUnits="userSpaceOnUse" y2="310.835" x2="152.943" y1="1.9916" x1="157.02" id="paint0_linear_104_438"><stop stop-color="#FFEAB0"></stop><stop stop-color="#F6DC9A" offset="0.0222199"></stop><stop stop-color="#E9C678" offset="0.0617601"></stop><stop stop-color="#DFB65F" offset="0.0993389"></stop><stop stop-color="#D9AC50" offset="0.1338"></stop><stop stop-color="#D7A94B" offset="0.1622"></stop><stop stop-color="#D9AD52" offset="0.1947"></stop><stop stop-color="#DEB767" offset="0.2437"></stop><stop stop-color="#E6C889" offset="0.303"></stop><stop stop-color="#F1DFB8" offset="0.3704"></stop><stop stop-color="#FFFDF3" offset="0.4437"></stop><stop stop-color="#FFFEF5" offset="0.4461"></stop><stop stop-color="#FEFDF3" offset="0.4685"></stop><stop stop-color="#FDF9EC" offset="0.4783"></stop><stop stop-color="#F9F3DF" offset="0.4857"></stop><stop stop-color="#F5E9CD" offset="0.4918"></stop><stop stop-color="#EFDDB6" offset="0.4972"></stop><stop stop-color="#E7CE99" offset="0.502"></stop><stop stop-color="#DEBD78" offset="0.5064"></stop><stop stop-color="#D8B05F" offset="0.5091"></stop><stop stop-color="#FFE097" offset="0.6288"></stop><stop stop-color="#AD7909" offset="0.902"></stop><stop stop-color="#D7A748" offset="1"></stop></linearGradient><linearGradient gradientUnits="userSpaceOnUse" y2="270.61" x2="153.471" y1="42.4374" x1="156.489" id="paint1_linear_104_438"><stop stop-color="#FFEAB0"></stop><stop stop-color="#F6DC9A" offset="0.0222199"></stop><stop stop-color="#E9C678" offset="0.0617601"></stop><stop stop-color="#DFB65F" offset="0.0993389"></stop><stop stop-color="#D9AC50" offset="0.1338"></stop><stop stop-color="#D7A94B" offset="0.1622"></stop><stop stop-color="#D9AD52" offset="0.1947"></stop><stop stop-color="#DEB767" offset="0.2437"></stop><stop stop-color="#E6C889" offset="0.303"></stop><stop stop-color="#F1DFB8" offset="0.3704"></stop><stop stop-color="#FFFDF3" offset="0.4437"></stop><stop stop-color="#FFFEF5" offset="0.4461"></stop><stop stop-color="#FEFDF3" offset="0.4685"></stop><stop stop-color="#FDF9EC" offset="0.4783"></stop><stop stop-color="#F9F3DF" offset="0.4857"></stop><stop stop-color="#F5E9CD" offset="0.4918"></stop><stop stop-color="#EFDDB6" offset="0.4972"></stop><stop stop-color="#E7CE99" offset="0.502"></stop><stop stop-color="#DEBD78" offset="0.5064"></stop><stop stop-color="#D8B05F" offset="0.5091"></stop><stop stop-color="#FFE097" offset="0.6288"></stop><stop stop-color="#AD7909" offset="0.9155"></stop><stop stop-color="#D7A748" offset="1"></stop></linearGradient><radialGradient gradientTransform="translate(154.999 155.003) rotate(0.750821) scale(119.532 119.532)" gradientUnits="userSpaceOnUse" r="1" cy="0" cx="0" id="paint2_radial_104_438"><stop stop-color="white" offset="0.8614"></stop><stop stop-color="#F7EDD2" offset="0.8883"></stop><stop stop-color="#E5C063" offset="0.9486"></stop><stop stop-color="#D49800" offset="1"></stop></radialGradient><linearGradient gradientUnits="userSpaceOnUse" y2="156.468" x2="266.025" y1="153.536" x1="43.9766" id="paint3_linear_104_438"><stop stop-color="#FFEAB0"></stop><stop stop-color="#F6DC9A" offset="0.0222199"></stop><stop stop-color="#E9C678" offset="0.0617601"></stop><stop stop-color="#DFB65F" offset="0.0993389"></stop><stop stop-color="#D9AC50" offset="0.1338"></stop><stop stop-color="#D7A94B" offset="0.1622"></stop><stop stop-color="#D9AD52" offset="0.1947"></stop><stop stop-color="#DEB767" offset="0.2437"></stop><stop stop-color="#E6C889" offset="0.303"></stop><stop stop-color="#F1DFB8" offset="0.3704"></stop><stop stop-color="#FFFDF3" offset="0.4437"></stop><stop stop-color="#FFFEF5" offset="0.4461"></stop><stop stop-color="#FEFDF3" offset="0.4685"></stop><stop stop-color="#FDF9EC" offset="0.4783"></stop><stop stop-color="#F9F3DF" offset="0.4857"></stop><stop stop-color="#F5E9CD" offset="0.4918"></stop><stop stop-color="#EFDDB6" offset="0.4972"></stop><stop stop-color="#E7CE99" offset="0.502"></stop><stop stop-color="#DEBD78" offset="0.5064"></stop><stop stop-color="#D8B05F" offset="0.5091"></stop><stop stop-color="#FFE097" offset="0.6288"></stop><stop stop-color="#AD7909" offset="0.902"></stop><stop stop-color="#D7A748" offset="1"></stop></linearGradient><linearGradient gradientUnits="userSpaceOnUse" y2="9.92483" x2="158.919" y1="300.074" x1="151.068" id="paint4_linear_104_438"><stop stop-color="#CEBD8E"></stop><stop stop-color="#CBB988" offset="0.0062969"></stop><stop stop-color="#BBA166" offset="0.0503565"></stop><stop stop-color="#B0904E" offset="0.0921934"></stop><stop stop-color="#A8863F" offset="0.1306"></stop><stop stop-color="#A6823A" offset="0.1622"></stop><stop stop-color="#A88641" offset="0.1994"></stop><stop stop-color="#AE9156" offset="0.2554"></stop><stop stop-color="#B8A378" offset="0.3232"></stop><stop stop-color="#C5BCA6" offset="0.3996"></stop><stop stop-color="#CECDC6" offset="0.4461"></stop><stop stop-color="#CDCCC4" offset="0.4695"></stop><stop stop-color="#CBC8BD" offset="0.4797"></stop><stop stop-color="#C7C1B0" offset="0.4874"></stop><stop stop-color="#C2B79E" offset="0.4939"></stop><stop stop-color="#BAAA87" offset="0.4995"></stop><stop stop-color="#B29B6B" offset="0.5045"></stop><stop stop-color="#A78849" offset="0.509"></stop><stop stop-color="#A78849" offset="0.5091"></stop><stop stop-color="#CEB47A" offset="0.6288"></stop><stop stop-color="#7C5606" offset="0.902"></stop><stop stop-color="#A68138" offset="1"></stop></linearGradient><linearGradient gradientUnits="userSpaceOnUse" y2="9.87939" x2="155.529" y1="300.123" x1="154.462" id="paint5_linear_104_438"><stop stop-color="#FFEAB0"></stop><stop stop-color="#F6DC9A" offset="0.0222199"></stop><stop stop-color="#E9C678" offset="0.0617601"></stop><stop stop-color="#DFB65F" offset="0.0993389"></stop><stop stop-color="#D9AC50" offset="0.1338"></stop><stop stop-color="#D7A94B" offset="0.1622"></stop><stop stop-color="#D9AD52" offset="0.1947"></stop><stop stop-color="#DEB767" offset="0.2437"></stop><stop stop-color="#E6C889" offset="0.303"></stop><stop stop-color="#F1DFB8" offset="0.3704"></stop><stop stop-color="#FFFDF3" offset="0.4437"></stop><stop stop-color="#FFFEF5" offset="0.4461"></stop><stop stop-color="#FEFDF3" offset="0.4685"></stop><stop stop-color="#FDF9EC" offset="0.4783"></stop><stop stop-color="#F9F3DF" offset="0.4857"></stop><stop stop-color="#F5E9CD" offset="0.4918"></stop><stop stop-color="#EFDDB6" offset="0.4972"></stop><stop stop-color="#E7CE99" offset="0.502"></stop><stop stop-color="#DEBD78" offset="0.5064"></stop><stop stop-color="#D8B05F" offset="0.5091"></stop><stop stop-color="#FFE097" offset="0.6288"></stop><stop stop-color="#AD7909" offset="0.902"></stop><stop stop-color="#D7A748" offset="1"></stop></linearGradient><clipPath id="clip0_104_438"><rect fill="white" height="310" width="310"></rect></clipPath></defs></svg>